<svg width="17" height="13" viewBox="0 0 17 13" fill="none" xmlns="http://www.w3.org/2000/svg">
<path d="M5.9479 12.3073C5.80901 12.3073 5.67881 12.2854 5.55728 12.2416C5.43575 12.1986 5.3229 12.125 5.21874 12.0208L0.739569 7.54163C0.548597 7.35065 0.457277 7.10308 0.465611 6.79892C0.474638 6.49544 0.574638 6.24822 0.76561 6.05725C0.956582 5.86628 1.19964 5.77079 1.49478 5.77079C1.78992 5.77079 2.03297 5.86628 2.22394 6.05725L5.9479 9.78121L14.776 0.953084C14.967 0.762112 15.2146 0.666626 15.5187 0.666626C15.8222 0.666626 16.0694 0.762112 16.2604 0.953084C16.4514 1.14406 16.5469 1.39128 16.5469 1.69475C16.5469 1.99892 16.4514 2.24649 16.2604 2.43746L6.67707 12.0208C6.5729 12.125 6.46006 12.1986 6.33853 12.2416C6.217 12.2854 6.08679 12.3073 5.9479 12.3073Z" fill="white"/>
</svg>
