<svg width="25" height="25" viewBox="0 0 25 25" fill="none" xmlns="http://www.w3.org/2000/svg">
<path d="M19.7916 21.875H8.33325V7.29166H19.7916M19.7916 5.20832H8.33325C7.78072 5.20832 7.25081 5.42782 6.86011 5.81852C6.46941 6.20922 6.24992 6.73912 6.24992 7.29166V21.875C6.24992 22.4275 6.46941 22.9574 6.86011 23.3481C7.25081 23.7388 7.78072 23.9583 8.33325 23.9583H19.7916C20.3441 23.9583 20.874 23.7388 21.2647 23.3481C21.6554 22.9574 21.8749 22.4275 21.8749 21.875V7.29166C21.8749 6.73912 21.6554 6.20922 21.2647 5.81852C20.874 5.42782 20.3441 5.20832 19.7916 5.20832ZM16.6666 1.04166H4.16659C3.61405 1.04166 3.08415 1.26115 2.69345 1.65185C2.30275 2.04255 2.08325 2.57246 2.08325 3.12499V17.7083H4.16659V3.12499H16.6666V1.04166Z" fill="#8B8B8B"/>
</svg>
