<svg width="25" height="25" viewBox="0 0 25 25" fill="none" xmlns="http://www.w3.org/2000/svg">
<g opacity="0.5">
<path d="M13.8124 3.12497C8.51031 2.97914 4.16656 7.23956 4.16656 12.5H2.30197C1.83322 12.5 1.60406 13.0625 1.93739 13.3854L4.84364 16.3021C5.05197 16.5104 5.37489 16.5104 5.58322 16.3021L8.48947 13.3854C8.56145 13.312 8.61009 13.2189 8.62925 13.1178C8.64841 13.0168 8.63723 12.9124 8.59712 12.8177C8.55702 12.723 8.48979 12.6423 8.4039 12.5858C8.31801 12.5292 8.2173 12.4994 8.11447 12.5H6.24989C6.24989 8.43747 9.56239 5.15622 13.6457 5.20831C17.5207 5.26039 20.7811 8.52081 20.8332 12.3958C20.8853 16.4687 17.6041 19.7916 13.5416 19.7916C11.8645 19.7916 10.3124 19.2187 9.08322 18.25C8.88371 18.0928 8.63338 18.0144 8.37985 18.0298C8.12633 18.0452 7.8873 18.1532 7.70822 18.3333C7.27072 18.7708 7.30197 19.5104 7.79156 19.8854C9.42815 21.1796 11.4551 21.881 13.5416 21.875C18.802 21.875 23.0624 17.5312 22.9166 12.2291C22.7811 7.34372 18.6978 3.26039 13.8124 3.12497ZM13.2811 8.33331C12.8541 8.33331 12.4999 8.68747 12.4999 9.11456V12.9479C12.4999 13.3125 12.6978 13.6562 13.0103 13.8437L16.2603 15.7708C16.6353 15.9896 17.1145 15.8646 17.3332 15.5C17.552 15.125 17.427 14.6458 17.0624 14.4271L14.0624 12.6458V9.10414C14.0624 8.68747 13.7082 8.33331 13.2811 8.33331Z" fill="white"/>
</g>
</svg>
