<svg width="40" height="40" viewBox="0 0 40 40" fill="none" xmlns="http://www.w3.org/2000/svg">
<path d="M38.4375 20.625C38.4351 18.9957 37.9619 17.4019 37.0748 16.0352C36.1878 14.6686 34.9247 13.5874 33.4375 12.9219V11.25C33.437 9.66361 32.9116 8.12197 31.9433 6.86537C30.975 5.60877 29.6182 4.70783 28.0844 4.30296C26.5505 3.89809 24.9258 4.01206 23.4635 4.62709C22.0012 5.24212 20.7834 6.32366 20 7.70313C19.2166 6.32366 17.9989 5.24212 16.5366 4.62709C15.0742 4.01206 13.4495 3.89809 11.9157 4.30296C10.3818 4.70783 9.025 5.60877 8.0567 6.86537C7.08841 8.12197 6.56305 9.66361 6.56251 11.25V12.9219C5.07519 13.5866 3.81211 14.6677 2.9258 16.0347C2.0395 17.4016 1.56787 18.9959 1.56787 20.625C1.56787 22.2541 2.0395 23.8484 2.9258 25.2153C3.81211 26.5823 5.07519 27.6634 6.56251 28.3281V28.75C6.56305 30.3364 7.08841 31.878 8.0567 33.1346C9.025 34.3912 10.3818 35.2922 11.9157 35.697C13.4495 36.1019 15.0742 35.9879 16.5366 35.3729C17.9989 34.7579 19.2166 33.6763 20 32.2969C20.7834 33.6763 22.0012 34.7579 23.4635 35.3729C24.9258 35.9879 26.5505 36.1019 28.0844 35.697C29.6182 35.2922 30.975 34.3912 31.9433 33.1346C32.9116 31.878 33.437 30.3364 33.4375 28.75V28.3281C34.9247 27.6626 36.1878 26.5814 37.0748 25.2148C37.9619 23.8481 38.4351 22.2543 38.4375 20.625ZM13.75 34.0625C12.3715 34.0593 11.0479 33.522 10.0572 32.5634C9.06658 31.6048 8.48602 30.2995 8.43751 28.9219C8.95303 29.0159 9.476 29.0629 10 29.0625H11.25C11.4987 29.0625 11.7371 28.9637 11.9129 28.7879C12.0887 28.6121 12.1875 28.3736 12.1875 28.125C12.1875 27.8764 12.0887 27.6379 11.9129 27.4621C11.7371 27.2863 11.4987 27.1875 11.25 27.1875H10C8.45179 27.1877 6.95334 26.6405 5.76957 25.6427C4.5858 24.6449 3.79293 23.2606 3.53112 21.7347C3.26932 20.2088 3.55545 18.6394 4.33892 17.3041C5.1224 15.9687 6.35276 14.9534 7.81251 14.4375C7.99639 14.3725 8.15541 14.2518 8.26743 14.0921C8.37946 13.9325 8.43891 13.7419 8.43751 13.5469V11.25C8.43751 9.84104 8.99722 8.48978 9.99351 7.4935C10.9898 6.49721 12.3411 5.9375 13.75 5.9375C15.159 5.9375 16.5102 6.49721 17.5065 7.4935C18.5028 8.48978 19.0625 9.84104 19.0625 11.25V23.9063C18.3893 23.1668 17.569 22.5763 16.6541 22.1727C15.7392 21.7691 14.75 21.5612 13.75 21.5625C13.5014 21.5625 13.2629 21.6613 13.0871 21.8371C12.9113 22.0129 12.8125 22.2514 12.8125 22.5C12.8125 22.7486 12.9113 22.9871 13.0871 23.1629C13.2629 23.3387 13.5014 23.4375 13.75 23.4375C15.159 23.4375 16.5102 23.9972 17.5065 24.9935C18.5028 25.9898 19.0625 27.341 19.0625 28.75C19.0625 30.159 18.5028 31.5102 17.5065 32.5065C16.5102 33.5028 15.159 34.0625 13.75 34.0625ZM30 27.1875H28.75C28.5014 27.1875 28.2629 27.2863 28.0871 27.4621C27.9113 27.6379 27.8125 27.8764 27.8125 28.125C27.8125 28.3736 27.9113 28.6121 28.0871 28.7879C28.2629 28.9637 28.5014 29.0625 28.75 29.0625H30C30.524 29.0629 31.047 29.0159 31.5625 28.9219C31.5288 29.9646 31.1887 30.9743 30.5849 31.8251C29.981 32.6758 29.14 33.3299 28.1667 33.7057C27.1935 34.0816 26.1312 34.1626 25.1122 33.9386C24.0933 33.7146 23.1628 33.1956 22.437 32.4462C21.7111 31.6969 21.2219 30.7504 21.0305 29.7248C20.8391 28.6993 20.9538 27.64 21.3605 26.6793C21.7671 25.7185 22.4477 24.8988 23.3172 24.3223C24.1867 23.7458 25.2067 23.438 26.25 23.4375C26.4987 23.4375 26.7371 23.3387 26.9129 23.1629C27.0887 22.9871 27.1875 22.7486 27.1875 22.5C27.1875 22.2514 27.0887 22.0129 26.9129 21.8371C26.7371 21.6613 26.4987 21.5625 26.25 21.5625C25.25 21.5612 24.2609 21.7691 23.346 22.1727C22.4311 22.5763 21.6107 23.1668 20.9375 23.9063V11.25C20.9375 9.84104 21.4972 8.48978 22.4935 7.4935C23.4898 6.49721 24.8411 5.9375 26.25 5.9375C27.659 5.9375 29.0102 6.49721 30.0065 7.4935C31.0028 8.48978 31.5625 9.84104 31.5625 11.25V13.5469C31.5611 13.7419 31.6206 13.9325 31.7326 14.0921C31.8446 14.2518 32.0036 14.3725 32.1875 14.4375C33.6473 14.9534 34.8776 15.9687 35.6611 17.3041C36.4446 18.6394 36.7307 20.2088 36.4689 21.7347C36.2071 23.2606 35.4142 24.6449 34.2305 25.6427C33.0467 26.6405 31.5482 27.1877 30 27.1875ZM9.37501 19.6875C9.12637 19.6875 8.88792 19.5887 8.7121 19.4129C8.53628 19.2371 8.43751 18.9986 8.43751 18.75C8.43751 18.5014 8.53628 18.2629 8.7121 18.0871C8.88792 17.9113 9.12637 17.8125 9.37501 17.8125C10.2854 17.8084 11.1574 17.4449 11.8012 16.8011C12.4449 16.1574 12.8084 15.2854 12.8125 14.375V13.125C12.8125 12.8764 12.9113 12.6379 13.0871 12.4621C13.2629 12.2863 13.5014 12.1875 13.75 12.1875C13.9987 12.1875 14.2371 12.2863 14.4129 12.4621C14.5887 12.6379 14.6875 12.8764 14.6875 13.125V14.375C14.6834 15.7827 14.1224 17.1316 13.127 18.127C12.1316 19.1223 10.7827 19.6834 9.37501 19.6875ZM31.5625 18.75C31.5625 18.9986 31.4637 19.2371 31.2879 19.4129C31.1121 19.5887 30.8737 19.6875 30.625 19.6875C29.2173 19.6834 27.8685 19.1223 26.8731 18.127C25.8777 17.1316 25.3166 15.7827 25.3125 14.375V13.125C25.3125 12.8764 25.4113 12.6379 25.5871 12.4621C25.7629 12.2863 26.0014 12.1875 26.25 12.1875C26.4987 12.1875 26.7371 12.2863 26.9129 12.4621C27.0887 12.6379 27.1875 12.8764 27.1875 13.125V14.375C27.1916 15.2854 27.5551 16.1574 28.1989 16.8011C28.8426 17.4449 29.7146 17.8084 30.625 17.8125C30.8737 17.8125 31.1121 17.9113 31.2879 18.0871C31.4637 18.2629 31.5625 18.5014 31.5625 18.75Z" fill="white"/>
</svg>
