<svg width="25" height="25" viewBox="0 0 25 25" fill="none" xmlns="http://www.w3.org/2000/svg">
<path d="M12.5 15.599C12.3611 15.599 12.2267 15.5729 12.0969 15.5209C11.9663 15.4688 11.8576 15.3993 11.7708 15.3125L6.97915 10.5209C6.78817 10.3299 6.69269 10.0868 6.69269 9.79169C6.69269 9.49655 6.78817 9.25349 6.97915 9.06252C7.17012 8.87155 7.41317 8.77606 7.70831 8.77606C8.00345 8.77606 8.24651 8.87155 8.43748 9.06252L12.5 13.125L16.5625 9.06252C16.7535 8.87155 16.9965 8.77606 17.2916 8.77606C17.5868 8.77606 17.8298 8.87155 18.0208 9.06252C18.2118 9.25349 18.3073 9.49655 18.3073 9.79169C18.3073 10.0868 18.2118 10.3299 18.0208 10.5209L13.2291 15.3125C13.125 15.4167 13.0121 15.4903 12.8906 15.5334C12.7691 15.5771 12.6389 15.599 12.5 15.599Z" fill="#8B8B8B"/>
</svg>
