<svg width="25" height="25" viewBox="0 0 25 25" fill="none" xmlns="http://www.w3.org/2000/svg">
<path d="M9.47917 9.6354L4.21875 6.69269L12.5 2.08331L20.7812 6.69269L15.5208 9.6354C15.1215 9.21873 14.6615 8.89755 14.1406 8.67185C13.6198 8.44616 13.0729 8.33331 12.5 8.33331C11.9271 8.33331 11.3802 8.44616 10.8594 8.67185C10.3385 8.89755 9.87847 9.21873 9.47917 9.6354ZM11.4583 22.3437L3.125 17.7083V8.46352L8.46354 11.4583C8.41146 11.6319 8.37674 11.8014 8.35937 11.9666C8.34201 12.1312 8.33333 12.309 8.33333 12.5C8.33333 13.4548 8.61979 14.3055 9.19271 15.0521C9.76562 15.7986 10.5208 16.2934 11.4583 16.5364V22.3437ZM12.5 14.5833C11.9271 14.5833 11.4368 14.3791 11.0292 13.9708C10.6208 13.5632 10.4167 13.0729 10.4167 12.5C10.4167 11.9271 10.6208 11.4364 11.0292 11.0281C11.4368 10.6205 11.9271 10.4166 12.5 10.4166C13.0729 10.4166 13.5635 10.6205 13.9719 11.0281C14.3795 11.4364 14.5833 11.9271 14.5833 12.5C14.5833 13.0729 14.3795 13.5632 13.9719 13.9708C13.5635 14.3791 13.0729 14.5833 12.5 14.5833ZM13.5417 22.3437V16.5364C14.4792 16.2934 15.2344 15.7986 15.8073 15.0521C16.3802 14.3055 16.6667 13.4548 16.6667 12.5C16.6667 12.309 16.658 12.1312 16.6406 11.9666C16.6233 11.8014 16.5885 11.6319 16.5365 11.4583L21.875 8.46352V17.7083L13.5417 22.3437Z" fill="#8B8B8B"/>
</svg>
