<svg width="26" height="26" viewBox="0 0 26 26" fill="none" xmlns="http://www.w3.org/2000/svg">
<path d="M8.5 19C6.83333 19 5.41667 18.4167 4.25 17.25C3.08333 16.0833 2.5 14.6667 2.5 13C2.5 11.3333 3.08333 9.91667 4.25 8.75C5.41667 7.58333 6.83333 7 8.5 7C9.6 7 10.6083 7.275 11.525 7.825C12.4417 8.375 13.1667 9.1 13.7 10H22.5C23.05 10 23.521 10.1957 23.913 10.587C24.3043 10.979 24.5 11.45 24.5 12V14C24.5 14.55 24.3043 15.0207 23.913 15.412C23.521 15.804 23.05 16 22.5 16V17C22.5 17.55 22.3043 18.021 21.913 18.413C21.521 18.8043 21.05 19 20.5 19H18.5C17.95 19 17.4793 18.8043 17.088 18.413C16.696 18.021 16.5 17.55 16.5 17V16H13.7C13.1667 16.9 12.4417 17.625 11.525 18.175C10.6083 18.725 9.6 19 8.5 19ZM8.5 17C9.6 17 10.4833 16.6627 11.15 15.988C11.8167 15.3127 12.2167 14.65 12.35 14H18.5V17H20.5V14H22.5V12H12.35C12.2167 11.35 11.8167 10.6873 11.15 10.012C10.4833 9.33733 9.6 9 8.5 9C7.4 9 6.45833 9.39167 5.675 10.175C4.89167 10.9583 4.5 11.9 4.5 13C4.5 14.1 4.89167 15.0417 5.675 15.825C6.45833 16.6083 7.4 17 8.5 17ZM8.5 15C9.05 15 9.52067 14.804 9.912 14.412C10.304 14.0207 10.5 13.55 10.5 13C10.5 12.45 10.304 11.979 9.912 11.587C9.52067 11.1957 9.05 11 8.5 11C7.95 11 7.47933 11.1957 7.088 11.587C6.696 11.979 6.5 12.45 6.5 13C6.5 13.55 6.696 14.0207 7.088 14.412C7.47933 14.804 7.95 15 8.5 15Z" fill="white" fill-opacity="0.5"/>
</svg>
